<?xml version="1.0" standalone="no"?>
<!DOCTYPE svg PUBLIC "-//W3C//DTD SVG 20010904//EN"
 "http://www.w3.org/TR/2001/REC-SVG-20010904/DTD/svg10.dtd">
<svg version="1.0" xmlns="http://www.w3.org/2000/svg"
 width="275.000000pt" height="275.000000pt" viewBox="0 0 275.000000 275.000000"
 preserveAspectRatio="xMidYMid meet">
<metadata>
Created by potrace 1.10, written by Peter Selinger 2001-2011
</metadata>
<g transform="translate(0.000000,275.000000) scale(0.100000,-0.100000)"
fill="#000000" stroke="none">
<path d="M577 1792 l-457 -457 0 -188 0 -187 460 0 460 0 0 -230 0 -230 230 0
230 0 0 415 0 415 -457 0 -458 0 460 460 460 460 -235 0 -235 0 -458 -458z"/>
<path d="M1700 2018 l0 -233 230 230 230 230 0 -225 0 -225 -230 -230 -230
-230 0 -232 0 -233 460 0 460 0 0 232 0 233 -230 -230 -230 -230 0 225 0 225
230 230 230 230 0 232 0 233 -460 0 -460 0 0 -232z"/>
</g>
</svg>
